<svg xmlns="http://www.w3.org/2000/svg" viewBox="75 95 175 125" shape-rendering="crispEdges">
<style>
  rect { fill: #c0caf5; }
  @media (prefers-color-scheme: light) { rect { fill: #1a1b26; } }
</style>
<rect x="210" y="100" width="10" height="10"/>
<rect x="240" y="100" width="10" height="10"/>
<rect x="200" y="110" width="10" height="60"/>
<rect x="230" y="110" width="10" height="20"/>
<rect x="210" y="130" width="20" height="20"/>
<rect x="110" y="140" width="20" height="40"/>
<rect x="160" y="140" width="20" height="40"/>
<rect x="190" y="140" width="10" height="20"/>
<rect x="230" y="140" width="10" height="20"/>
<rect x="100" y="150" width="10" height="30"/>
<rect x="130" y="150" width="10" height="30"/>
<rect x="150" y="150" width="10" height="30"/>
<rect x="180" y="150" width="10" height="30"/>
<rect x="220" y="150" width="10" height="20"/>
<rect x="90" y="160" width="10" height="20"/>
<rect x="140" y="160" width="10" height="10"/>
<rect x="210" y="160" width="10" height="10"/>
<rect x="80" y="170" width="10" height="10"/>
<rect x="110" y="180" width="10" height="10"/>
<rect x="160" y="180" width="10" height="10"/>
<rect x="190" y="180" width="10" height="10"/>
<rect x="100" y="190" width="10" height="10"/>
<rect x="170" y="190" width="10" height="10"/>
<rect x="200" y="190" width="10" height="10"/>
<rect x="90" y="200" width="10" height="10"/>
<rect x="180" y="200" width="10" height="10"/>
<rect x="210" y="200" width="10" height="10"/>
</svg>
